<svg xmlns="http://www.w3.org/2000/svg" viewBox="0 0 45.4 65.4">
  <g id="Layer_2" data-name="Layer 2">
    <g id="Layer_1-2" data-name="Layer 1">
      <path
        d="M22.3,28.2h0L35.2,64.1a1,1,0,0,1-.9,1.3H32.5a.8.8,0,0,1-.8-.7l-.5-1.8a.8.8,0,0,0-.8-.6l-14.7-.4a1,1,0,0,0-.8.5l-1.1,2.3a.8.8,0,0,1-.8.5H8.6ZM12.2,63.4l.7-1.8a.8.8,0,0,1,.8-.6H30.9a.8.8,0,0,1,.8.6l.7,1.8a.8.8,0,0,0,.8.6h.9L23.6,33.7a1,1,0,0,0-.9-.6h-.9a.8.8,0,0,0-.8.6L10.5,64h.9A.8.8,0,0,0,12.2,63.4ZM23.1,36.9l7.4,21.3a.9.9,0,0,1-.8,1.3H14.9a1,1,0,0,1-.9-1.3l7.5-21.3A.8.8,0,0,1,23.1,36.9ZM24.3,55l-1.2-3.5a.8.8,0,0,0-1.6,0L20.2,55a1,1,0,0,0,.9,1.3h2.4A.9.9,0,0,0,24.3,55Z"/><path d="M0,0H5.1l8,25.5L21.5.6a1.1,1.1,0,0,1,.9-.6h0a1.1,1.1,0,0,1,1,.7l7.3,24.5L38.8.5,45.4.2l-12.1,37H29.7L22.5,14.3,14.8,37.7l-2.9-.2ZM14.7,34.5l7.8-24.4,7.7,24.4a1.2,1.2,0,0,0,1,.7h0a1.2,1.2,0,0,0,1-.7L42,4.8H40.3L31.2,32.5,23.4,7.7a.9.9,0,0,0-1.8,0L13.7,32.5,4.6,4.8H3l9.8,29.7a1,1,0,0,0,.9.7h0A1,1,0,0,0,14.7,34.5Z"/><path d="M0,14.1H5.1l8,25.6,8.7-25.6h1.4l7.5,25.2,8.1-24.6,6.6-.3-12.1,37-3.6-.2L22.5,28.5,14.8,51.9l-2.9-.3ZM14.7,48.6l7.8-24.4,7.7,24.4a1.1,1.1,0,0,0,1,.8h0a1.2,1.2,0,0,0,1-.7L42,18.9H40.3L31.2,46.6,22.5,18.9,13.7,46.6,4.6,18.9H3l9.8,29.8a1,1,0,0,0,.9.7h0A1,1,0,0,0,14.7,48.6Z"
      />
    </g>
  </g>
</svg>
